<?xml version="1.0" standalone="no"?><!DOCTYPE svg PUBLIC "-//W3C//DTD SVG 1.1//EN" "http://www.w3.org/Graphics/SVG/1.1/DTD/svg11.dtd"><svg t="1757750345692" class="icon" viewBox="0 0 1024 1024" version="1.1" xmlns="http://www.w3.org/2000/svg" p-id="827" xmlns:xlink="http://www.w3.org/1999/xlink" width="200" height="200"><path d="M1009.534 487.64c-0.34-0.42-0.703-0.82-1.06-1.226-0.202-0.228-0.394-0.464-0.602-0.688a39.95 39.95 0 0 0-19.732-11.746l-283.942-71.055a39.994 39.994 0 0 0-32.576 5.983l-186.758 130.12a40.216 40.216 0 0 0-2.773 1.963 39.999 39.999 0 0 0-15.379 31.524v238.923c0 18.358 12.497 34.36 30.309 38.809l285.783 71.363a40.001 40.001 0 0 0 34.311-7.285 39.941 39.941 0 0 0 5.678-5.434l178.61-124.178a40 40 0 0 0 17.166-32.843V512.95c0-9.39-3.296-18.286-9.035-25.31z m-307.107-2.691l180.98 45.29-99.766 69.509-180.979-45.29 99.765-69.509zM546.711 623.732l204.854 51.154v156.467l-204.854-51.154V623.732z m391.858 107.233l-106.075 73.748V663.225l106.075-73.747v141.487z" fill="#1C86E5" p-id="828"></path><path d="M552.334 532.674c-0.327-0.403-0.676-0.787-1.018-1.178-0.217-0.244-0.423-0.497-0.646-0.737a39.945 39.945 0 0 0-19.728-11.741L247 447.963a39.995 39.995 0 0 0-32.577 5.983L27.689 584.05a39.73 39.73 0 0 0-2.797 1.978 39.999 39.999 0 0 0-15.379 31.524v238.922c0 18.358 12.497 34.36 30.309 38.809l285.783 71.365a40.004 40.004 0 0 0 34.312-7.284 39.977 39.977 0 0 0 5.68-5.437l178.608-124.176a40 40 0 0 0 17.166-32.843V557.986a39.987 39.987 0 0 0-9.037-25.312z m-307.105-2.689l180.979 45.29-99.766 69.51-180.979-45.291 99.766-69.509zM89.513 668.769l204.854 51.154V876.39L89.513 825.234V668.769z m391.858 107.233l-106.075 73.747V708.261l106.075-73.748v141.489z" fill="#1C86E5" p-id="829"></path><path d="M758.416 142.353c-0.336-0.415-0.695-0.809-1.047-1.21-0.207-0.233-0.402-0.475-0.615-0.704a39.952 39.952 0 0 0-19.73-11.744L453.082 57.64a39.997 39.997 0 0 0-32.577 5.983l-186.75 130.113a40.196 40.196 0 0 0-2.781 1.968 40 40 0 0 0-15.379 31.525v238.922c0 18.359 12.497 34.36 30.309 38.808l285.783 71.366a40.007 40.007 0 0 0 34.312-7.284 40.056 40.056 0 0 0 5.686-5.442l178.601-124.17a40 40 0 0 0 17.167-32.843V167.664a40.001 40.001 0 0 0-9.037-25.311z m-307.106-2.689l180.979 45.289-99.766 69.508-180.978-45.29 99.765-69.507zM295.594 278.446L500.448 329.6v156.467l-204.854-51.156V278.446z m391.857 107.233l-106.074 73.747V317.938l106.074-73.747v141.488z" fill="#80E1FF" p-id="830"></path></svg>